<?xml version="1.0" encoding="iso-8859-1"?>
<!-- Generator: Adobe Illustrator 19.0.0, SVG Export Plug-In . SVG Version: 6.00 Build 0)  -->
<svg fill ="#fff" version="1.1" id="Layer_1" xmlns="http://www.w3.org/2000/svg" xmlns:xlink="http://www.w3.org/1999/xlink" x="0px" y="0px"
	 viewBox="0 0 496 496" style="enable-background:new 0 0 496 496;" xml:space="preserve">
<g>
	<g>
		<g>
			<path d="M216,40c-97.048,0-176,78.952-176,176h16c0-88.224,71.776-160,160-160V40z"/>
			<path d="M216,136c-44.112,0-80,35.888-80,80s35.888,80,80,80s80-35.888,80-80S260.112,136,216,136z M216,280
				c-35.288,0-64-28.712-64-64c0-35.288,28.712-64,64-64c35.288,0,64,28.712,64,64C280,251.288,251.288,280,216,280z"/>
			<path d="M424.888,323.672C425.04,323.96,440,353.488,440,392c0,38.512-14.96,68.04-15.112,68.328l14.208,7.352
				C439.8,466.352,456,434.576,456,392s-16.2-74.352-16.896-75.68L424.888,323.672z"/>
			<path d="M470.912,291.968l-13.832,8.064C457.32,300.424,480,339.936,480,392c0,51.848-22.688,91.584-22.912,91.976l13.832,8.056
				C471.936,490.272,496,448.344,496,392S471.936,293.728,470.912,291.968z"/>
			<path d="M216,0C96.896,0,0,96.896,0,216s96.896,216,216,216c8.008,0,16.024-0.6,24-1.488V464h54.112l64,32H400V328.944
				c20.896-33.976,32-72.952,32-112.944C432,96.896,335.104,0,216,0z M288,448h-32v-16h16v-16h-16v-16h16v-16h-16v-16h16v-16h-16
				v-16h32V448z M352,475.056l-48-24V332.944l48-24V475.056z M384,480h-16V304h16V480z M358.112,288l-64,32H240v94.424
				c-7.968,0.952-15.992,1.576-24,1.576c-110.28,0-200-89.72-200-200S105.72,16,216,16s200,89.72,200,200
				c0,27.024-5.536,53.536-16,78.136V288H358.112z"/>
			<path d="M216,200c8.816,0,16,7.176,16,16h16c0-17.648-14.352-32-32-32s-32,14.352-32,32s14.352,32,32,32
				c8.968,0,17.608-3.872,23.712-10.64l-11.872-10.72c-3.12,3.456-7.328,5.36-11.84,5.36c-8.824,0-16-7.176-16-16
				C200,207.176,207.176,200,216,200z"/>
		</g>
	</g>
</g>
<g>
</g>
<g>
</g>
<g>
</g>
<g>
</g>
<g>
</g>
<g>
</g>
<g>
</g>
<g>
</g>
<g>
</g>
<g>
</g>
<g>
</g>
<g>
</g>
<g>
</g>
<g>
</g>
<g>
</g>
</svg>
