<?xml version="1.0" encoding="iso-8859-1"?>
<!-- Generator: Adobe Illustrator 18.0.0, SVG Export Plug-In . SVG Version: 6.00 Build 0)  -->
<!DOCTYPE svg PUBLIC "-//W3C//DTD SVG 1.1//EN" "http://www.w3.org/Graphics/SVG/1.1/DTD/svg11.dtd">
<svg version="1.1" id="Capa_1" xmlns="http://www.w3.org/2000/svg" xmlns:xlink="http://www.w3.org/1999/xlink" x="0px" y="0px"
	 viewBox="0 0 60 60" style="enable-background:new 0 0 60 60;" xml:space="preserve">
<g>
	<path d="M52.179,39.929l-5.596,8.04l-3.949-3.241c-0.426-0.352-1.057-0.288-1.407,0.138c-0.351,0.427-0.289,1.058,0.139,1.407
		l4.786,3.929c0.18,0.148,0.404,0.228,0.634,0.228c0.045,0,0.091-0.003,0.137-0.01c0.276-0.038,0.524-0.19,0.684-0.419l6.214-8.929
		c0.315-0.453,0.204-1.076-0.25-1.392C53.117,39.361,52.495,39.475,52.179,39.929z"/>
	<path d="M47,32.5c-7.168,0-13,5.832-13,13s5.832,13,13,13s13-5.832,13-13S54.168,32.5,47,32.5z M47,56.5c-6.065,0-11-4.935-11-11
		s4.935-11,11-11s11,4.935,11,11S53.065,56.5,47,56.5z"/>
	<path d="M29,32.5c0-3.309,2.916-6,6.5-6c1.746,0,3.331,0.642,4.5,1.68V18.67l-17,2.684v17.248c0,0.013-0.007,0.025-0.008,0.038
		C22.911,41.883,20.033,44.5,16.5,44.5c-3.584,0-6.5-2.691-6.5-6s2.916-6,6.5-6c1.746,0,3.331,0.642,4.5,1.68V20.5v-2.714V14.5
		c0-0.492,0.358-0.911,0.844-0.987l19-3c0.29-0.047,0.583,0.037,0.805,0.228C41.872,10.93,42,11.208,42,11.5v1v5v12.811
		c1.575-0.52,3.253-0.811,5-0.811c4.262,0,8.13,1.685,11,4.411V3.065C58,2.201,57.299,1.5,56.435,1.5H1.565
		C0.701,1.5,0,2.201,0,3.065v45.869C0,49.799,0.701,50.5,1.565,50.5h30.246c-0.52-1.575-0.811-3.253-0.811-5
		c0-2.714,0.684-5.271,1.882-7.512C30.599,37.056,29,34.948,29,32.5z"/>
</g>
<g>
</g>
<g>
</g>
<g>
</g>
<g>
</g>
<g>
</g>
<g>
</g>
<g>
</g>
<g>
</g>
<g>
</g>
<g>
</g>
<g>
</g>
<g>
</g>
<g>
</g>
<g>
</g>
<g>
</g>
</svg>
